<svg width="292" height="384" viewBox="0 0 292 384" fill="none" xmlns="http://www.w3.org/2000/svg">
<style>
@keyframes kf_Glass_of_water_opacity_0 {
  0% {
    animation-timing-function: cubic-bezier(0.5, 0, 0.5, 1);
    opacity: 0;
  }
  29.8% {
    animation-timing-function: linear;
    opacity: 1;
  }
  50.2% {
    animation-timing-function: linear;
    opacity: 1;
  }
  100% {
    opacity: 1;
  }
}
#Glass_of_water {
  animation: kf_Glass_of_water_opacity_0 2.000108s linear infinite;
}
@keyframes kf_Water_transform_0 {
  0% {
    transform: translateX(4px) translateY(21.535px) scaleX(1) scaleY(1);
  }
  2.48% {
    transform: translateX(4px) translateY(21.535px) scaleX(0.998) scaleY(1);
  }
  4.97% {
    transform: translateX(4px) translateY(21.535px) scaleX(0.995) scaleY(1);
  }
  7.45% {
    transform: translateX(4px) translateY(21.535px) scaleX(0.993) scaleY(1);
  }
  9.93% {
    transform: translateX(4px) translateY(21.535px) scaleX(0.991) scaleY(1);
  }
  12.42% {
    transform: translateX(4px) translateY(21.535px) scaleX(0.988) scaleY(1);
  }
  14.9% {
    transform: translateX(4px) translateY(21.535px) scaleX(0.986) scaleY(1);
  }
  17.38% {
    transform: translateX(4px) translateY(21.535px) scaleX(0.983) scaleY(1);
  }
  19.87% {
    transform: translateX(4px) translateY(21.535px) scaleX(0.981) scaleY(1);
  }
  22.35% {
    transform: translateX(4px) translateY(21.535px) scaleX(0.979) scaleY(1);
  }
  24.83% {
    transform: translateX(4px) translateY(21.535px) scaleX(0.976) scaleY(1);
  }
  27.32% {
    transform: translateX(4px) translateY(21.535px) scaleX(0.974) scaleY(1);
  }
  29.8% {
    transform: translateX(4px) translateY(21.535px) scaleX(0.972) scaleY(1);
  }
  31.5% {
    transform: translateX(4px) translateY(21.535px) scaleX(0.97) scaleY(1);
  }
  33.2% {
    transform: translateX(4px) translateY(21.535px) scaleX(0.968) scaleY(1);
  }
  34.9% {
    transform: translateX(4px) translateY(21.535px) scaleX(0.967) scaleY(1);
  }
  36.6% {
    transform: translateX(4px) translateY(21.535px) scaleX(0.965) scaleY(1);
  }
  38.3% {
    transform: translateX(4px) translateY(21.535px) scaleX(0.963) scaleY(1.001);
  }
  40% {
    transform: translateX(4px) translateY(21.535px) scaleX(0.962) scaleY(1.001);
  }
  41.7% {
    transform: translateX(4px) translateY(21.535px) scaleX(0.96) scaleY(1.001);
  }
  43.4% {
    transform: translateX(4px) translateY(21.535px) scaleX(0.959) scaleY(1.001);
  }
  45.1% {
    transform: translateX(4px) translateY(21.535px) scaleX(0.957) scaleY(1.001);
  }
  46.8% {
    transform: translateX(4px) translateY(21.535px) scaleX(0.955) scaleY(1.001);
  }
  48.5% {
    transform: translateX(4px) translateY(21.535px) scaleX(0.954) scaleY(1.001);
  }
  50.2% {
    transform: translateX(4px) translateY(21.535px) scaleX(0.952) scaleY(1.001);
  }
  51.04% {
    transform: translateX(4px) translateY(21.535px) scaleX(0.96) scaleY(1.021);
  }
  51.88% {
    transform: translateX(4px) translateY(21.535px) scaleX(0.968) scaleY(1.041);
  }
  52.72% {
    transform: translateX(4px) translateY(21.535px) scaleX(0.976) scaleY(1.061);
  }
  53.56% {
    transform: translateX(4px) translateY(21.535px) scaleX(0.984) scaleY(1.082);
  }
  54.41% {
    transform: translateX(4px) translateY(21.535px) scaleX(0.992) scaleY(1.102);
  }
  55.25% {
    transform: translateX(4px) translateY(21.535px) scaleX(1) scaleY(1.122);
  }
  56.09% {
    transform: translateX(4px) translateY(21.535px) scaleX(1.008) scaleY(1.142);
  }
  56.93% {
    transform: translateX(4px) translateY(21.535px) scaleX(1.016) scaleY(1.163);
  }
  57.77% {
    transform: translateX(4px) translateY(21.535px) scaleX(1.024) scaleY(1.183);
  }
  58.61% {
    transform: translateX(4px) translateY(21.535px) scaleX(1.032) scaleY(1.203);
  }
  59.46% {
    transform: translateX(4px) translateY(21.535px) scaleX(1.04) scaleY(1.224);
  }
  60.3% {
    transform: translateX(4px) translateY(21.535px) scaleX(1.048) scaleY(1.244);
  }
  61.12% {
    transform: translateX(4px) translateY(21.535px) scaleX(1.056) scaleY(1.26);
  }
  61.95% {
    transform: translateX(4px) translateY(21.535px) scaleX(1.063) scaleY(1.277);
  }
  62.77% {
    transform: translateX(4px) translateY(21.535px) scaleX(1.071) scaleY(1.293);
  }
  63.6% {
    transform: translateX(4px) translateY(21.535px) scaleX(1.079) scaleY(1.309);
  }
  64.42% {
    transform: translateX(4px) translateY(21.535px) scaleX(1.087) scaleY(1.326);
  }
  65.25% {
    transform: translateX(4px) translateY(21.535px) scaleX(1.095) scaleY(1.342);
  }
  66.07% {
    transform: translateX(4px) translateY(21.535px) scaleX(1.102) scaleY(1.358);
  }
  66.9% {
    transform: translateX(4px) translateY(21.535px) scaleX(1.11) scaleY(1.375);
  }
  67.72% {
    transform: translateX(4px) translateY(21.535px) scaleX(1.118) scaleY(1.391);
  }
  68.55% {
    transform: translateX(4px) translateY(21.535px) scaleX(1.126) scaleY(1.407);
  }
  69.37% {
    transform: translateX(4px) translateY(21.535px) scaleX(1.134) scaleY(1.424);
  }
  70.2% {
    transform: translateX(4px) translateY(21.535px) scaleX(1.142) scaleY(1.44);
  }
  71.01% {
    transform: translateX(4px) translateY(21.535px) scaleX(1.149) scaleY(1.456);
  }
  71.83% {
    transform: translateX(4px) translateY(21.535px) scaleX(1.157) scaleY(1.471);
  }
  72.65% {
    transform: translateX(4px) translateY(21.535px) scaleX(1.165) scaleY(1.487);
  }
  73.46% {
    transform: translateX(4px) translateY(21.535px) scaleX(1.173) scaleY(1.503);
  }
  74.28% {
    transform: translateX(4px) translateY(21.535px) scaleX(1.18) scaleY(1.518);
  }
  75.1% {
    transform: translateX(4px) translateY(21.535px) scaleX(1.188) scaleY(1.534);
  }
  75.91% {
    transform: translateX(4px) translateY(21.535px) scaleX(1.196) scaleY(1.549);
  }
  76.73% {
    transform: translateX(4px) translateY(21.535px) scaleX(1.203) scaleY(1.565);
  }
  77.55% {
    transform: translateX(4px) translateY(21.535px) scaleX(1.211) scaleY(1.58);
  }
  78.36% {
    transform: translateX(4px) translateY(21.535px) scaleX(1.219) scaleY(1.596);
  }
  79.18% {
    transform: translateX(4px) translateY(21.535px) scaleX(1.227) scaleY(1.612);
  }
  80% {
    transform: translateX(4px) translateY(21.535px) scaleX(1.234) scaleY(1.627);
  }
  80.72% {
    transform: translateX(4px) translateY(21.535px) scaleX(1.241) scaleY(1.67);
  }
  81.45% {
    transform: translateX(4px) translateY(21.535px) scaleX(1.248) scaleY(1.713);
  }
  82.18% {
    transform: translateX(4px) translateY(21.535px) scaleX(1.255) scaleY(1.756);
  }
  82.91% {
    transform: translateX(4px) translateY(21.535px) scaleX(1.262) scaleY(1.799);
  }
  83.64% {
    transform: translateX(4px) translateY(21.535px) scaleX(1.269) scaleY(1.842);
  }
  84.37% {
    transform: translateX(4px) translateY(21.535px) scaleX(1.276) scaleY(1.885);
  }
  85.1% {
    transform: translateX(4px) translateY(21.535px) scaleX(1.283) scaleY(1.928);
  }
  85.83% {
    transform: translateX(4px) translateY(21.535px) scaleX(1.29) scaleY(1.972);
  }
  86.56% {
    transform: translateX(4px) translateY(21.535px) scaleX(1.297) scaleY(2.015);
  }
  87.29% {
    transform: translateX(4px) translateY(21.535px) scaleX(1.304) scaleY(2.058);
  }
  88.02% {
    transform: translateX(4px) translateY(21.535px) scaleX(1.31) scaleY(2.101);
  }
  88.75% {
    transform: translateX(4px) translateY(21.535px) scaleX(1.317) scaleY(2.144);
  }
  88.84% {
    transform: translateX(4px) translateY(21.535px) scaleX(1.317) scaleY(2.144);
  }
  88.93% {
    transform: translateX(4px) translateY(21.535px) scaleX(1.317) scaleY(2.144);
  }
  89.02% {
    transform: translateX(4px) translateY(21.535px) scaleX(1.317) scaleY(2.144);
  }
  89.11% {
    transform: translateX(4px) translateY(21.535px) scaleX(1.317) scaleY(2.144);
  }
  89.2% {
    transform: translateX(4px) translateY(21.535px) scaleX(1.317) scaleY(2.144);
  }
  89.3% {
    transform: translateX(4px) translateY(21.535px) scaleX(1.317) scaleY(2.144);
  }
  89.39% {
    transform: translateX(4px) translateY(21.535px) scaleX(1.317) scaleY(2.144);
  }
  89.48% {
    transform: translateX(4px) translateY(21.535px) scaleX(1.317) scaleY(2.144);
  }
  89.57% {
    transform: translateX(4px) translateY(21.535px) scaleX(1.317) scaleY(2.144);
  }
  89.66% {
    transform: translateX(4px) translateY(21.535px) scaleX(1.317) scaleY(2.144);
  }
  89.75% {
    transform: translateX(4px) translateY(21.535px) scaleX(1.317) scaleY(2.144);
  }
  89.85% {
    transform: translateX(4px) translateY(21.535px) scaleX(1.317) scaleY(2.144);
  }
  90.69% {
    transform: translateX(4px) translateY(21.535px) scaleX(1.317) scaleY(2.144);
  }
  91.54% {
    transform: translateX(4px) translateY(21.535px) scaleX(1.317) scaleY(2.144);
  }
  92.38% {
    transform: translateX(4px) translateY(21.535px) scaleX(1.317) scaleY(2.144);
  }
  93.23% {
    transform: translateX(4px) translateY(21.535px) scaleX(1.317) scaleY(2.144);
  }
  94.08% {
    transform: translateX(4px) translateY(21.535px) scaleX(1.317) scaleY(2.144);
  }
  94.92% {
    transform: translateX(4px) translateY(21.535px) scaleX(1.317) scaleY(2.144);
  }
  95.77% {
    transform: translateX(4px) translateY(21.535px) scaleX(1.317) scaleY(2.144);
  }
  96.62% {
    transform: translateX(4px) translateY(21.535px) scaleX(1.317) scaleY(2.144);
  }
  97.46% {
    transform: translateX(4px) translateY(21.535px) scaleX(1.317) scaleY(2.144);
  }
  98.31% {
    transform: translateX(4px) translateY(21.535px) scaleX(1.317) scaleY(2.144);
  }
  99.15% {
    transform: translateX(4px) translateY(21.535px) scaleX(1.317) scaleY(2.144);
  }
  100% {
    transform: translateX(4px) translateY(21.535px) scaleX(1.317) scaleY(2.144);
  }
}
@keyframes kf_Water_opacity_0 {
  0% {
    animation-timing-function: linear;
    opacity: 0.71;
  }
  50.2% {
    animation-timing-function: linear;
    opacity: 0.71;
  }
  60.3% {
    animation-timing-function: linear;
    opacity: 0.71;
  }
  70.2% {
    animation-timing-function: cubic-bezier(0.5, 0, 0.5, 1);
    opacity: 0.71;
  }
  80% {
    animation-timing-function: cubic-bezier(0.5, 0, 0.5, 1);
    opacity: 0.62;
  }
  88.75% {
    animation-timing-function: cubic-bezier(0.5, 0, 0.5, 1);
    opacity: 0.45;
  }
  100% {
    opacity: 0;
  }
}
#Water {
  transform-origin: 0 0;
  animation:
    kf_Water_transform_0 2.000108s linear infinite,
    kf_Water_opacity_0 2.000108s linear infinite;
}
@keyframes kf_Glass_transform_0 {
  0% {
    transform: translateX(0px) translateY(0px) translateX(0px) translateY(0px);
  }
  60.3% {
    transform: translateX(0px) translateY(0px) translateX(0px) translateY(0px);
  }
  100% {
    transform: translateX(0px) translateY(0px) translateX(0px) translateY(0px);
  }
}
@keyframes kf_Glass_opacity_0 {
  0% {
    animation-timing-function: linear;
    opacity: 1;
  }
  60.3% {
    animation-timing-function: linear;
    opacity: 1;
  }
  89.85% {
    animation-timing-function: cubic-bezier(0.5, 0, 0.5, 1);
    opacity: 1;
  }
  100% {
    opacity: 0;
  }
}
#Glass {
  transform-origin: 0 0;
  animation:
    kf_Glass_transform_0 2.000108s linear infinite,
    kf_Glass_opacity_0 2.000108s linear infinite;
}
</style>
<g id="Animate_Bare_Flower" clip-path="url(#clip0_43_3230)">
<rect width="292" height="384" id="Animate_Bare_Flower_bg_0" fill="white">
</rect>
<g id="Animate_Bare_Flower_2" transform="translate(77 170)">
<g id="Flower_Kotas" transform="translate(14.5005)">
<path id="Kotas" transform="translate(22.5)" d="M23.6603 78.3276H37.8927C44.7555 60.983 43.9694 51.2584 37.8927 33.9138C37.8927 14 55 9 55 9H40L30.5 0V17L0 9C0 9 14.1948 16.5691 23.6603 33.9138C31.3431 51.2586 31.8412 60.9829 23.6603 78.3276Z" fill="#A2816F" stroke="#3C0372" stroke-width="5"/>
<path id="Papuves" transform="translate(48.4994 47.1268)" d="M0 31.2008H9.5C14.5919 18.3319 15.7851 10.7041 13.4188 0L5.5 3.04801C7.04725 11.9893 5.27904 20.0085 0 31.2008Z" fill="#7B5A35"/>
<g id="Puvesis" transform="translate(75 23.7536)">
<path id="Kotas_2" transform="translate(2.90775 3.24643)" d="M6.59215 14L3.09215 0C1.58732 18.97 -3.04124 45.325 3.09214 60C10.5875 64.4485 7.90855 59.6133 12.5921 56.5C4.00717 45.9584 2.57276 36.1089 6.59215 14Z" fill="#744A32"/>
<path id="Kotas_3" transform="translate(28.6993 17.5554) rotate(52.8404)" d="M5.54213 9.1535L3.09216 0C1.58732 10.9858 -3.04124 26.2483 3.09215 34.7467C10.5875 37.3229 8.51505 35.1647 8.51505 35.1647C-0.0699187 29.0599 1.52274 21.957 5.54213 9.1535Z" fill="#744A32"/>
<path id="Kotas_4" transform="translate(30.8914) rotate(52.8404)" d="M2.77397 0C2.77397 0 -3.46745 13.5009 2.77396 34.7467C10.2693 37.3229 8.19686 35.1647 8.19686 35.1647C4.10958 31.5145 2.56614 28.6228 1.75472 21.2702C0.779025 12.0045 1.35511 7.59306 2.77397 0Z" fill="#744A32"/>
</g>
<g id="Puvesis_2" transform="matrix(-1 0 0 1 36.3488 42.7465)">
<path id="Kotas_5" transform="translate(7.25519 -8.38935e-06)" d="M6.59215 14L3.09215 0C1.58732 18.97 -3.04124 45.325 3.09214 60C10.5875 64.4485 7.90855 59.6133 12.5921 56.5C4.00717 45.9584 2.57276 36.1089 6.59215 14Z" fill="#744A32"/>
<path id="Kotas_6" transform="matrix(-0.97204 -0.234817 -0.234817 0.97204 36.3489 7.74003)" d="M2.77397 0C2.77397 0 -3.46745 13.5009 2.77396 34.7467C10.2693 37.3229 8.19686 35.1647 8.19686 35.1647C4.10958 31.5145 2.56614 28.6228 1.75472 21.2702C0.779025 12.0045 1.35511 7.59306 2.77397 0Z" fill="#744A32"/>
<path id="Kotas_7" transform="translate(20 9.60586) rotate(-13.5808)" d="M2.11205 0C2.11205 0 -2.65648 9.10899 2.13674 24.4482L3.62974 24.7873C2.51669 23.9859 0.393313 18.9913 1.17713 14.6958C0.427824 8.00606 1.02241 5.48209 2.11205 0Z" fill="#744A32"/>
<path id="Kotas_8" transform="translate(2.95639e-05 3.60586) rotate(-13.5808)" d="M2.11205 0C2.11205 0 -2.65648 9.10899 2.13674 24.4482L3.62974 24.7873C2.51669 23.9859 0.393313 18.9913 1.17713 14.6958C0.427824 8.00606 1.02241 5.48209 2.11205 0Z" fill="#744A32"/>
</g>
<path id="Kotas_9" transform="translate(51.9999 25.5)" d="M9.09323 29C9.74846 19.2956 8.25844 16.5923 4.69965 4.29412C4.15591 3.06067 4.41581 1.16987 3.96454 0L0 12.8676C2.20075 20.8808 3.13899 28.1212 2.52701 35L9.09323 29Z" fill="#7A5A35" fill-opacity="0.58"/>
</g>
<g id="Vase" transform="translate(0 74.6635)">
<g id="Vector_1" transform="translate(7 58.6641)">
<path d="M0 0L16.5 72H105.708L125 0H0Z" id="Vector_1_bg_0" fill="#D16B3D">
</path>
<path d="M0 0L16.5 72H105.708L125 0H0Z" stroke="black" stroke-width="6"/>
<path d="M0 0L16.5 72H105.708L125 0H0Z" stroke="#3C0273" stroke-width="6"/>
</g>
<g id="Vector_2" transform="translate(0 23.6641)">
<path d="M0 27.5L7 35.5H133.381L138 27.5V7.5L130.5 0H10L0 7.5V27.5Z" id="Vector_2_bg_0" fill="#D16B3D">
</path>
<path d="M0 27.5L7 35.5H133.381L138 27.5V7.5L130.5 0H10L0 7.5V27.5Z" stroke="black" stroke-width="6"/>
<path d="M0 27.5L7 35.5H133.381L138 27.5V7.5L130.5 0H10L0 7.5V27.5Z" stroke="#3C0273" stroke-width="6"/>
</g>
<path id="Vector_3" transform="translate(3 26.6641)" d="M0 6V23.3499L4 28V9L8 6H123.5L132 13V6L126.262 0H8L0 6Z" fill="#EFB794"/>
<path id="Vector_4" transform="translate(52.5 32.6641)" d="M74 20.5V0H43.5C43.5 0 39.5 2.5 34 8C28.5 13.5 21.2567 18.9151 0 20.5H74Z" fill="#A9534B"/>
<path id="Vector_5" transform="translate(28 62.6641)" d="M67 0H98L81 63.5H1.5L0 55C39.5013 50.5812 54.2593 38.6496 67 0Z" fill="#A9534B"/>
<path id="Vector_7" transform="translate(11 62.1641)" d="M0 0L15 65.5H17.5L3 0H0Z" fill="#EFB795"/>
<path id="Dirt" transform="translate(11)" d="M119.5 24.1472H0C13.0974 8.08861 17.7385 1.94069 35.5 14.1641C44.7479 -6.24578 69.4938 -2.18872 77 11.1641C92.2472 -1.58829 102.387 7.26346 119.5 24.1472Z" fill="#905F42" stroke="#3C0372" stroke-width="6"/>
</g>
</g>
<g id="Glass_of_water" opacity="0" transform="translate(161 132.5) rotate(-180)">
<animate attributeName="height" values="83.5; 83.5; 83.5; 83.5; 83.5; 83.5; 83.5; 83.5; 83.5; 83.5; 83.5; 83.5; 83.5; 83.5; 83.5; 83.5; 83.5; 83.5; 83.5; 83.5; 83.5; 83.5; 83.5; 83.5; 83.5; 83.5; 83.5; 83.5; 83.5; 83.5; 83.5; 83.5; 83.702; 84.785; 85.868; 86.952; 88.035; 88.91; 89.785; 90.66; 91.535; 92.41; 93.285; 94.16; 95.035; 95.91; 96.785; 97.66; 98.535; 99.369; 100.202; 101.035; 101.869; 102.702; 103.535; 104.369; 105.202; 106.035; 106.869; 107.702; 108.535; 110.836; 113.137; 115.438; 117.739; 120.039; 122.34; 124.641; 126.942; 129.243; 131.544; 133.845; 136.145; 136.145; 136.145; 136.145; 136.145; 136.145; 136.145; 136.145; 136.145; 136.145; 136.145; 136.145; 136.145; 136.145; 136.145; 136.145; 136.145; 136.145; 136.145; 136.145; 136.145; 136.145; 136.145; 136.145; 136.145" keyTimes="0; 0.0248; 0.0497; 0.0745; 0.0993; 0.1242; 0.149; 0.1738; 0.1987; 0.2235; 0.2483; 0.2732; 0.298; 0.315; 0.332; 0.349; 0.366; 0.383; 0.4; 0.417; 0.434; 0.451; 0.468; 0.485; 0.502; 0.5104; 0.5188; 0.5272; 0.5356; 0.5441; 0.5525; 0.5609; 0.5693; 0.5777; 0.5861; 0.5946; 0.603; 0.6112; 0.6195; 0.6277; 0.636; 0.6442; 0.6525; 0.6607; 0.669; 0.6772; 0.6855; 0.6937; 0.702; 0.7101; 0.7183; 0.7265; 0.7346; 0.7428; 0.751; 0.7591; 0.7673; 0.7755; 0.7836; 0.7918; 0.8; 0.8072; 0.8145; 0.8218; 0.8291; 0.8364; 0.8437; 0.851; 0.8583; 0.8656; 0.8729; 0.8802; 0.8875; 0.8884; 0.8893; 0.8902; 0.8911; 0.892; 0.893; 0.8939; 0.8948; 0.8957; 0.8966; 0.8975; 0.8985; 0.9069; 0.9154; 0.9238; 0.9323; 0.9408; 0.9492; 0.9577; 0.9662; 0.9746; 0.9831; 0.9915; 1" dur="2.000108s" calcMode="linear" repeatCount="indefinite" />
<animate attributeName="width" values="39; 39; 39; 39; 39; 39; 39; 39; 39; 39; 39; 39; 39; 39; 39; 39; 39; 39; 39; 39; 39; 39; 39; 39; 39; 39; 39; 39; 39; 39; 39; 39; 39; 39; 39; 39; 39; 39; 39; 39; 39; 39; 39; 39; 39; 39.233; 39.479; 39.725; 39.972; 40.215; 40.459; 40.703; 40.947; 41.191; 41.435; 41.678; 41.922; 42.166; 42.41; 42.654; 42.898; 43.115; 43.333; 43.551; 43.768; 43.986; 44.204; 44.422; 44.639; 44.857; 45.075; 45.292; 45.51; 45.51; 45.51; 45.51; 45.51; 45.51; 45.51; 45.51; 45.51; 45.51; 45.51; 45.51; 45.51; 45.51; 45.51; 45.51; 45.51; 45.51; 45.51; 45.51; 45.51; 45.51; 45.51; 45.51; 45.51" keyTimes="0; 0.0248; 0.0497; 0.0745; 0.0993; 0.1242; 0.149; 0.1738; 0.1987; 0.2235; 0.2483; 0.2732; 0.298; 0.315; 0.332; 0.349; 0.366; 0.383; 0.4; 0.417; 0.434; 0.451; 0.468; 0.485; 0.502; 0.5104; 0.5188; 0.5272; 0.5356; 0.5441; 0.5525; 0.5609; 0.5693; 0.5777; 0.5861; 0.5946; 0.603; 0.6112; 0.6195; 0.6277; 0.636; 0.6442; 0.6525; 0.6607; 0.669; 0.6772; 0.6855; 0.6937; 0.702; 0.7101; 0.7183; 0.7265; 0.7346; 0.7428; 0.751; 0.7591; 0.7673; 0.7755; 0.7836; 0.7918; 0.8; 0.8072; 0.8145; 0.8218; 0.8291; 0.8364; 0.8437; 0.851; 0.8583; 0.8656; 0.8729; 0.8802; 0.8875; 0.8884; 0.8893; 0.8902; 0.8911; 0.892; 0.893; 0.8939; 0.8948; 0.8957; 0.8966; 0.8975; 0.8985; 0.9069; 0.9154; 0.9238; 0.9323; 0.9408; 0.9492; 0.9577; 0.9662; 0.9746; 0.9831; 0.9915; 1" dur="2.000108s" calcMode="linear" repeatCount="indefinite" />
<path id="Water" opacity="0.71" transform="translate(4 21.5352)" d="M31.4902 0.595017L31.5 0.46471C31.5 0.46471 31.5285 0.52178 31.4902 0.595017L27.5 53.4647H5L0 0.46471C3.31915 -0.0799926 5.18094 -0.225554 8.5 0.46471C15.078 1.18884 20 -0.535217 26 0.46471C30.5666 1.22575 31.3679 0.828339 31.4902 0.595017Z" fill="#486AD0"/>
<g id="Glass">
<path id="Rectangle_1" transform="translate(0 0.412476)" d="M2.20508 4.3877C15.7702 6.11223 24.2147 6.58065 36.832 4.49512L31.6318 81.0879H8.83398L2.20508 4.3877Z" fill="#BCBCBC" fill-opacity="0.24" stroke="black" stroke-width="4"/>
<path id="Vector_20" d="M0 3C15.2266 -1.06269 23.7715 -0.936813 39 3" stroke="black" stroke-width="4"/>
</g>
</g>
</g>
<defs>
<clipPath id="clip0_43_3230">
<rect width="292" height="384" fill="white"/>
</clipPath>
</defs>
</svg>
