<svg width="229" height="405" viewBox="0 0 229 405" fill="none" xmlns="http://www.w3.org/2000/svg">
<path d="M165.122 227.306C152.854 218.404 138.287 216.993 128.833 238.693C132.973 243.03 143.551 239.786 147.622 242.546C159.971 234.907 158.978 242.519 166.622 249.949C166.879 241.628 207.282 247.028 201.622 245.594C195.961 244.16 168.509 235.411 165.122 227.306Z" fill="#1DB371" stroke="#3C0372" stroke-width="5"/>
<path d="M166.361 248.996C166.619 240.675 191.418 244.09 184.122 242.29C176.826 240.49 173.319 240.932 166.361 242.837C164.126 239.116 161.962 239.531 157.861 236.837C155.321 235.95 151.776 236.268 147.361 237.837C142.361 235.337 139.06 240.887 134.622 236.837C134.01 238.05 129.179 236.35 128.573 237.74C132.712 242.077 143.291 238.834 147.361 241.593C159.71 233.955 158.718 241.566 166.361 248.996Z" fill="#7A5A35"/>
<path d="M166.622 240.944C151.969 226.255 148.974 223.599 131.053 238.455L131.63 240.944C149.405 226.414 152.483 227.312 166.622 240.944Z" fill="#370473"/>
<path d="M42.1222 266.495C63.5536 262.965 66.4948 244.516 80.1217 251.69C81.5746 246.154 82.8441 240.895 93.6217 241.675C95.512 237.381 106.893 241.841 114.278 240.435C96.6049 219.5 82.8504 216.817 71.6217 232.967C63.8498 247.419 56.1965 258.287 42.1222 266.495Z" fill="#1DB371" stroke="#3C0372" stroke-width="5"/>
<path d="M76.1218 241.28C85.794 226.283 93.0909 234.589 112.264 241.28L110.801 239.084C92.266 230.689 84.8004 224.122 76.1218 241.28Z" fill="#370473"/>
<path d="M80.1216 251.69C66.4947 244.516 81.5531 250.761 60.1217 254.29C64.3992 252.008 69.1268 249.811 73.1217 242.29C76.2383 240.281 76.9681 245.729 79.1217 244.79C81.9166 243.572 84.0611 240.159 88.1217 238.79C88.0744 238.819 88.0303 238.845 87.9894 238.87C90.0471 237.881 100.021 234.038 114.278 240.435C106.893 241.841 95.512 237.381 93.6216 241.675C82.8441 240.895 81.5745 246.154 80.1216 251.69Z" fill="#7A5A35"/>
<path d="M126.515 185.79H112.282C104.704 203.135 102.817 212.859 112.282 230.204C119.965 247.549 120.463 257.273 112.282 274.618H126.515C133.378 257.273 132.592 247.549 126.515 230.204C117.258 212.859 118.476 203.135 126.515 185.79Z" fill="#15B867" stroke="#3C0372" stroke-width="5"/>
<path d="M114.622 274.618H124.122C129.214 261.749 130.407 254.121 128.041 243.417L120.122 246.465C121.669 255.406 119.901 263.426 114.622 274.618Z" fill="#7B5A35"/>
<path d="M117.622 206.097L108.622 204.79C107.754 211.798 109.087 219.626 112.622 225.047C116.942 226.691 118.922 226.44 121.622 225.29C118.651 220.071 117.332 212.905 117.622 206.097Z" fill="#729655"/>
<path d="M128.122 250.819C128.793 242.61 127.267 240.323 123.622 229.919C123.065 228.875 122.556 227.86 122.094 226.871L118.033 237.757C120.288 244.535 121.248 250.661 120.622 256.48L128.122 250.819Z" fill="#7A5A35" fill-opacity="0.58"/>
<path d="M58.6217 329.618L75.1217 401.618H164.329L183.622 329.618H58.6217Z" fill="#D16B3D"/>
<path d="M58.6217 329.618L75.1217 401.618H164.329L183.622 329.618H58.6217Z" stroke="black" stroke-width="6"/>
<path d="M58.6217 329.618L75.1217 401.618H164.329L183.622 329.618H58.6217Z" stroke="#3C0273" stroke-width="6"/>
<path d="M51.6217 322.118L58.6217 330.118H185.003L189.622 322.118V302.118L182.122 294.618H61.6217L51.6217 302.118V322.118Z" fill="#D16B3D"/>
<path d="M51.6217 322.118L58.6217 330.118H185.003L189.622 322.118V302.118L182.122 294.618H61.6217L51.6217 302.118V322.118Z" stroke="black" stroke-width="6"/>
<path d="M51.6217 322.118L58.6217 330.118H185.003L189.622 322.118V302.118L182.122 294.618H61.6217L51.6217 302.118V322.118Z" stroke="#3C0273" stroke-width="6"/>
<path d="M54.6217 303.618V320.968L58.6217 325.618V306.618L62.6217 303.618H178.122L186.622 310.618V303.618L180.883 297.618H62.6217L54.6217 303.618Z" fill="#EFB794"/>
<path d="M178.122 324.118V303.618H147.622C147.622 303.618 143.622 306.118 138.122 311.618C132.622 317.118 125.378 322.533 104.122 324.118H178.122Z" fill="#A9534B"/>
<path d="M146.622 333.618H177.622L160.622 397.118H81.1217L79.6217 388.618C119.123 384.199 133.881 372.268 146.622 333.618Z" fill="#A9534B"/>
<path d="M62.6217 333.118L77.6217 398.618H80.1217L65.6217 333.118H62.6217Z" fill="#EFB795"/>
<path d="M182.122 295.101H62.6217C75.7191 279.042 80.3602 272.894 98.1217 285.118C107.37 264.708 132.116 268.765 139.622 282.118C154.869 269.365 165.009 278.217 182.122 295.101Z" fill="#905F42" stroke="#3C0372" stroke-width="6"/>
<path d="M116.746 56.2859C144.224 56.2859 166.246 77.4648 166.246 103.286C166.246 129.107 144.224 150.286 116.746 150.286C89.2684 150.286 67.2462 129.107 67.2462 103.286C67.2462 77.4648 89.2684 56.2859 116.746 56.2859Z" fill="#F8C440" stroke="#3C0273" stroke-width="6"/>
<path d="M103.5 130.15C103.5 121.23 111.516 114 118.092 114C124.667 114 132.5 121.23 132.5 130.15C132.608 136.37 126.596 119 118.092 119C109.587 119 102.31 137.448 103.5 130.15Z" fill="#380876"/>
<path d="M89 94.313C89 94.313 95.5803 91.6886 101.5 88.8261C107.42 85.9637 113.932 80 113.932 80C113.932 80 111.145 86.9394 103.489 90.6415C95.8325 94.3436 89 94.313 89 94.313Z" fill="#380876"/>
<path d="M148.932 94.313C148.932 94.313 142.352 91.6886 136.432 88.8261C130.513 85.9637 124 80 124 80C124 80 126.788 86.9394 134.444 90.6415C142.1 94.3436 148.932 94.313 148.932 94.313Z" fill="#380876"/>
<ellipse cx="106.002" cy="98.2637" rx="6.75556" ry="10.9778" fill="#380876"/>
<ellipse cx="107.691" cy="94.8859" rx="1.68889" ry="3.37778" fill="white"/>
<ellipse cx="103.046" cy="102.064" rx="1.26667" ry="2.11111" fill="white"/>
<ellipse cx="6.75556" cy="10.9778" rx="6.75556" ry="10.9778" transform="matrix(-1 0 0 1 137.246 87.2859)" fill="#380876"/>
<ellipse cx="1.68889" cy="3.37778" rx="1.68889" ry="3.37778" transform="matrix(-1 0 0 1 130.491 91.5081)" fill="white"/>
<ellipse cx="1.26667" cy="2.11111" rx="1.26667" ry="2.11111" transform="matrix(-1 0 0 1 134.713 99.9526)" fill="white"/>
<path d="M100.375 197.67C91.707 182.674 90.7151 171.318 95.3755 146.17C113.572 152.618 123.222 152.574 139.375 146.17C147.628 171.087 151.535 184.697 140.875 200.17C132.59 201.962 128.866 200.563 122.375 197.67C113.482 200.341 108.55 201.355 100.375 197.67Z" fill="#FF67A1" stroke="#470D77" stroke-width="5"/>
<path d="M125.122 181.67C111.451 180.81 105.684 181.643 97.6217 184.67C99.2954 189.248 100.377 191.666 102.622 195.67C110.491 198.051 114.494 197.671 122.622 195.17C130.08 198.341 134.009 198.68 139.122 197.67C144.223 189.901 144.552 185.836 144.622 179.67C139.346 182.939 135.952 184.309 125.122 181.67Z" fill="#966F3B" stroke="#8F6C3C"/>
<path d="M119.666 168.17C117.095 161.883 116.697 158.144 117.482 151.17H121.122L119.666 168.17Z" fill="#460D77" stroke="#460D77"/>
<path d="M38.1217 143.17C49.4764 123.565 50.8799 122.856 68.5218 113.287C75.1947 131.402 81.3974 138.796 96.6483 147.124C67.1972 157.257 79.1217 193.17 64.6217 191.17C50.1217 189.17 38.1217 161.67 38.1217 161.67C35.1633 153.597 34.6217 149.212 38.1217 143.17Z" fill="#FF67A1" stroke="#470D77" stroke-width="5"/>
<path d="M50.1217 166.17C42.0438 155.108 50.6026 144.935 43.1217 140.67C38.6217 142.67 38.6217 152.17 38.6217 152.17L39.6217 157.67L41.1217 162.67C43.4503 170.432 49.5758 177.384 53.6217 180.67C65.8806 194.687 70.68 189.004 72.6217 171.67C66.7351 169.702 55.0148 176.185 50.1217 166.17Z" fill="#966F3B" stroke="#8F6C3C"/>
<path d="M67.1309 146.03C70.3224 140.035 72.9429 137.339 78.8081 133.483L81.1348 136.282L67.1309 146.03Z" fill="#460D77" stroke="#460D77"/>
<path d="M119.3 18.1261C130.554 37.788 130.463 39.3577 129.882 59.4193C110.865 56.0964 101.357 57.7493 86.4986 66.7584C92.5199 36.2004 55.474 28.4846 64.4829 16.9482C73.4918 5.41173 103.3 8.83882 103.3 8.83882C111.767 10.333 115.83 12.0655 119.3 18.1261Z" fill="#FF67A1" stroke="#470D77" stroke-width="5"/>
<path d="M73.1218 33.1695C84.1218 35.6695 76.1217 25.1695 82.6218 24.1155C94.4805 27.9817 99.8024 27.5684 105.622 19.6695C105.622 19.6695 115.686 24.1245 120.556 21.4475C121.189 16.5341 113.622 11.1695 113.622 11.1695C97.0245 6.47498 89.0504 5.43515 76.1218 7.87732C56.4101 11.6853 61.6218 28.6695 73.1218 33.1695Z" fill="#966F3B" stroke="#460D77" stroke-width="5"/>
<path d="M102.263 41.779C105.846 47.5489 106.862 51.1687 107.251 58.1766L103.663 58.7837L102.263 41.779Z" fill="#460D77" stroke="#460D77"/>
<path d="M82.6217 27.1696C83.1597 27.2291 82.1269 35.3722 79.1217 35.6695L81.1217 38.1695L84.6217 30.6695C98.4459 33.6041 100.671 30.3168 107.122 26.6695C112.602 28.8027 115.869 29.3701 122.122 29.1695C121.341 27.8027 120.403 26.0364 119.622 24.6695C114.383 25.3583 111.538 25.2533 106.622 22.6695C99.5996 29.6484 94.3215 30.5984 82.6217 27.1696Z" fill="#BB5189" stroke="#BB5088"/>
<path d="M163.397 30.306C143.475 41.0941 142.727 42.4767 132.656 59.837C150.572 67.0265 157.784 73.4386 165.672 88.922C176.645 59.7734 214.705 92.2209 213.122 77.6695C211.538 63.1181 197.622 40.6695 197.622 40.6695C189.637 37.4809 169.538 26.9807 163.397 30.306Z" fill="#FF67A1" stroke="#470D77" stroke-width="5"/>
<path d="M196.122 83.1695C184.3 78.4858 206.821 66.1302 201.122 61.1695C187.782 57.1347 177.399 50.7143 175.831 40.2473C175.831 40.2473 163.914 37.8398 160.603 32.4881C162.493 27.8375 172.477 27.9016 172.477 27.9016C190.783 34.1694 198.96 38.234 210.12 48.4005C228.546 71.4025 211.033 94.5876 196.122 83.1695Z" fill="#966F3B" stroke="#460D77" stroke-width="5"/>
<path d="M165.425 59.3854C159.341 62.4036 156.57 64.9458 152.549 70.698L155.28 73.104L165.425 59.3854Z" fill="#460D77" stroke="#460D77"/>
<path d="M199.622 63.6695C197.071 65.6235 191.622 74.1695 191.622 74.1695L186.122 73.6695L191.622 65.1695C178.324 60.3844 173.185 53.6672 169.622 47.1695C163.839 46.097 160.392 41.6711 155.183 38.208C156.566 37.4574 158.294 36.4497 159.678 35.699C163.768 39.0432 168.081 41.7769 173.622 42.1695C175.916 51.8002 187.87 60.4233 199.622 63.6695Z" fill="#BB5189" stroke="#BB5088"/>
<path d="M44.3296 54.0726C66.9299 55.6493 68.1837 56.5982 84.536 68.2346C71.2011 82.1938 67.2887 91.0158 66.5157 108.375C44.4638 86.3806 17.4536 112.883 12.8734 98.9809C8.29319 85.0787 27.7144 62.208 27.7144 62.208C33.6639 56.0009 37.3632 53.5865 44.3296 54.0726Z" fill="#FF67A1" stroke="#470D77" stroke-width="5"/>
<path d="M26.1217 83.1696C32.5044 71.0501 42.0808 65.764 42.6217 57.1695C38.8465 54.0075 36.7452 54.6132 36.7452 54.6132L29.09 59.6132L23.7452 64.6132C17.7976 70.1181 8.91707 88.0346 7.74524 93.1132C0.546943 110.287 17.1998 123.048 33.6217 117.17C51.1217 105.67 13.0266 107.568 26.1217 83.1696Z" fill="#966F3B" stroke="#460D77" stroke-width="5"/>
<path d="M54.5176 81.3842C61.3055 81.614 64.8792 82.7819 70.9208 86.3542L69.4301 89.6748L54.5176 81.3842Z" fill="#460D77" stroke="#460D77"/>
<path d="M176.622 184.67C160.622 173.67 169.212 157.214 141.208 146.667C156.958 135.505 162.48 127.59 166.547 110.696C191.671 118.3 207.622 110.696 213.622 134.67C210.315 142.475 209.122 151.17 203.122 162.17C207.203 176.212 192.841 186.445 176.622 184.67Z" fill="#FF67A1" stroke="#470D77" stroke-width="5"/>
<path d="M202.122 121.67C202.122 121.67 209.517 139.336 201.122 146.67C196.401 152.55 195.503 163.826 189.622 169.67C184.821 174.44 174.596 173.924 173.622 177.669C175.154 181.902 179.577 183.704 187.36 181.169C200.596 176.694 202.254 170.672 200.122 162.169C206.691 152.055 210.622 134.669 210.622 134.669C208.922 128.118 205.122 122.17 202.122 121.67Z" fill="#966F3B" stroke="#8F6C3C"/>
<path d="M173.182 139.479C166.562 137.96 163.276 136.132 158.026 131.474L160.122 128.499L173.182 139.479Z" fill="#460D77" stroke="#460D77"/>
</svg>
